<svg xmlns="http://www.w3.org/2000/svg" xml:space="preserve" width="2048" height="2048" style="shape-rendering:geometricPrecision;text-rendering:geometricPrecision;image-rendering:optimizeQuality;fill-rule:evenodd;clip-rule:evenodd"><defs><style>.fil0{fill:#212121;fill-rule:nonzero}</style></defs><g id="Layer_x0020_1"><path class="fil0" d="M961.5 1242.06c0 17.673 14.328 32 32 32 17.674 0 32.002-14.327 32.002-32 0-35.633 69.093-358.343 96.007-482.699l150.204 112.654c14.082 10.563 34.063 7.708 44.625-6.374 10.563-14.083 7.708-34.063-6.374-44.626l-187.719-140.789a31.85 31.85 0 0 0-14.584-7.483c-17.265-3.776-34.323 7.157-38.1 24.421l31.261 6.839-31.25-6.75c-.309 1.417-108.072 493.986-108.072 544.808z"/><path class="fil0" d="M875.922 1074.48c41.627 0 79.317 16.876 106.6 44.16 27.284 27.283 44.16 64.973 44.16 106.6 0 41.626-16.877 79.317-44.16 106.601-27.284 27.284-64.974 44.16-106.6 44.16-41.627 0-79.318-16.876-106.602-44.16-27.284-27.283-44.16-64.975-44.16-106.602 0-41.627 16.877-79.317 44.16-106.6 27.284-27.283 64.975-44.159 106.602-44.159zm61.35 89.41c-15.697-15.697-37.389-25.408-61.35-25.408s-45.654 9.71-61.351 25.408c-15.697 15.696-25.408 37.388-25.408 61.35 0 23.96 9.71 45.654 25.408 61.35 15.697 15.698 37.39 25.409 61.351 25.409s45.653-9.711 61.35-25.408c15.697-15.697 25.408-37.39 25.408-61.351 0-23.962-9.711-45.654-25.408-61.35z"/><path class="fil0" d="M671.999 255.998H1376c44.033 0 84.041 17.992 113.026 46.975 28.983 28.984 46.975 68.993 46.975 113.026v95.997c0 17.673-14.328 32.001-32.001 32.001h-16.062v960H1504c17.673 0 32 14.328 32 32.001V1632c0 44.033-17.99 84.042-46.974 113.027C1460.042 1774.01 1420.033 1792 1376 1792H671.999c-44.033 0-84.041-17.991-113.026-46.974-28.983-28.985-46.975-68.993-46.975-113.026v-96.003c0-17.673 14.328-32 32.001-32h16.06v-960H544c-17.673 0-32-14.329-32-32.002V416c0-44.033 17.99-84.042 46.974-113.026 28.984-28.983 68.993-46.975 113.026-46.975zM1376 320H671.999c-26.367 0-50.361 10.81-67.775 28.223C586.81 365.637 576 389.631 576 415.998v63.997h16.06c17.674 0 32.002 14.328 32.002 32.001v1024c0 17.673-14.328 32-32.001 32H576v64.002c0 26.367 10.809 50.362 28.223 67.776 17.414 17.414 41.408 28.223 67.775 28.223H1376c26.367 0 50.361-10.81 67.775-28.223 17.414-17.414 28.224-41.409 28.224-67.775v-64.002h-16.062c-17.673 0-32-14.328-32-32v-1024c0-17.674 14.327-32.002 32-32.002h16.062v-63.997c0-26.367-10.81-50.36-28.224-67.775C1426.361 330.81 1402.367 320 1376 320z"/><path class="fil0" d="M550.966 479.998c-17.673 0-32 14.328-32 32 0 17.674 14.327 32.002 32 32.002H1497.036c17.673 0 32-14.328 32-32.001s-14.327-32.001-32-32.001H550.966zM550.966 1504c-17.673 0-32 14.328-32 32 0 17.674 14.327 32.002 32 32.002H1497.036c17.673 0 32-14.328 32-32.001s-14.327-32.001-32-32.001H550.966zM895.999 367.998c-17.673 0-32 14.328-32 32 0 17.674 14.327 32.002 32 32.002h256.002c17.673 0 32-14.328 32-32.001s-14.327-32.001-32-32.001H895.999zM971.672 1616c-17.673 0-32 14.328-32 32 0 17.674 14.327 32.002 32 32.002h104.655c17.673 0 32-14.328 32-32.001S1094 1616 1076.328 1616H971.672z"/></g><path style="fill:none" d="M0 0h2048v2048H0z"/></svg>